{"title":"1000Giri &amp;ndash; 140815 &amp;ndash; Akane","uid":10827770,"size":768302150,"categoryP":"porn","categoryS":"movie_clips","magnet":"?xt=urn:btih:99c56405a8c288dbe5b9fb438fdcf247159d3bf2&amp;dn=1000Giri+%26ndash%3B+140815+%26ndash%3B+Akane&amp;tr=udp%3A%2F%2Ftracker.openbittorrent.com%3A80&amp;tr=udp%3A%2F%2Fopen.demonii.com%3A1337&amp;tr=udp%3A%2F%2Ftracker.coppersurfer.tk%3A6969&amp;tr=udp%3A%2F%2Fexodus.desync.com%3A6969","seeders":1,"leechers":1,"uploader":"ThousandPeers","files":-1,"time":1408590160,"description":"Format                                   : Windows Media\nFile size                                : 722 MiB\nDuration                                 : 31mn 43s\nOverall bit rate mode                    : Constant\nOverall bit rate                         : 3 182 Kbps\nMaximum Overall bit rate                 : 3 223 Kbps\nEncoded date                             : UTC 2014-08-12 13:58:56.825\n\nVideo\nID                                       : 1\nFormat                                   : VC-1\nFormat profile                           : MP@HL\nCodec ID                                 : WMV3\nCodec ID/Info                            : Windows Media Video 9\nCodec ID/Hint                            : WMV3\nDescription of the codec                 : Windows Media Video 9 - Professional\nDuration                                 : 31mn 43s\nBit rate mode                            : Constant\nBit rate                                 : 3 000 Kbps\nWidth                                    : 1 280 pixels\nHeight                                   : 720 pixels\nDisplay aspect ratio                     : 16:9\nFrame rate                               : 59.940 fps\nBit depth                                : 8 bits\nScan type                                : Progressive\nCompression mode                         : Lossy\nBits/(Pixel*Frame)                       : 0.054\nStream size                              : 681 MiB (94%)\nLanguage                                 : Japanese\n\nAudio\nID                                       : 2\nFormat                                   : WMA\nFormat version                           : Version 2\nCodec ID                                 : 161\nCodec ID/Info                            : Windows Media Audio\nDescription of the codec                 : Windows Media Audio 9.2 - 192 kbps, 48 kHz, stereo 2-pass CBR\nDuration                                 : 31mn 43s\nBit rate mode                            : Constant\nBit rate                                 : 192 Kbps\nChannel(s)                               : 2 channels\nSampling rate                            : 48.0 KHz\nBit depth                                : 16 bits\nStream size                              : 43.6 MiB (6%)\nLanguage                                 : Japanese\n","torrent":{"xt":"urn:btih:99c56405a8c288dbe5b9fb438fdcf247159d3bf2","amp;dn":"1000Giri+%26ndash%3B+140815+%26ndash%3B+Akane","amp;tr":["udp%3A%2F%2Ftracker.openbittorrent.com%3A80","udp%3A%2F%2Fopen.demonii.com%3A1337","udp%3A%2F%2Ftracker.coppersurfer.tk%3A6969","udp%3A%2F%2Fexodus.desync.com%3A6969"],"infoHash":"99c56405a8c288dbe5b9fb438fdcf247159d3bf2","infoHashBuffer":{"type":"Buffer","data":[153,197,100,5,168,194,136,219,229,185,251,67,143,220,242,71,21,157,59,242]},"announce":[],"urlList":[]}}